<mxfile host="app.diagrams.net" agent="Mozilla/5.0 (Macintosh; Intel Mac OS X 10_15_7) AppleWebKit/537.36 (KHTML, like Gecko) Chrome/132.0.0.0 Safari/537.36" version="24.7.14">
  <diagram name="Page-1" id="1WPV8v8izj73nYmYOFvB">
    <mxGraphModel dx="1004" dy="647" grid="1" gridSize="10" guides="1" tooltips="1" connect="1" arrows="1" fold="1" page="1" pageScale="1" pageWidth="827" pageHeight="1169" math="0" shadow="0">
      <root>
        <mxCell id="0" />
        <mxCell id="1" parent="0" />
        <mxCell id="L87-WMjq7oRlefQ_rRnq-1" value="" style="sketch=0;points=[[0,0,0],[0.25,0,0],[0.5,0,0],[0.75,0,0],[1,0,0],[0,1,0],[0.25,1,0],[0.5,1,0],[0.75,1,0],[1,1,0],[0,0.25,0],[0,0.5,0],[0,0.75,0],[1,0.25,0],[1,0.5,0],[1,0.75,0]];outlineConnect=0;fontColor=#232F3E;fillColor=#8C4FFF;strokeColor=#ffffff;dashed=0;verticalLabelPosition=bottom;verticalAlign=top;align=center;html=1;fontSize=12;fontStyle=0;aspect=fixed;shape=mxgraph.aws4.resourceIcon;resIcon=mxgraph.aws4.cloudfront;" vertex="1" parent="1">
          <mxGeometry x="490" y="280" width="78" height="78" as="geometry" />
        </mxCell>
        <mxCell id="L87-WMjq7oRlefQ_rRnq-4" style="edgeStyle=orthogonalEdgeStyle;rounded=0;orthogonalLoop=1;jettySize=auto;html=1;" edge="1" parent="1" source="L87-WMjq7oRlefQ_rRnq-2" target="L87-WMjq7oRlefQ_rRnq-3">
          <mxGeometry relative="1" as="geometry" />
        </mxCell>
        <mxCell id="L87-WMjq7oRlefQ_rRnq-5" value="viewer-request" style="edgeLabel;html=1;align=center;verticalAlign=middle;resizable=0;points=[];fontSize=13;" vertex="1" connectable="0" parent="L87-WMjq7oRlefQ_rRnq-4">
          <mxGeometry x="-0.1066" y="-3" relative="1" as="geometry">
            <mxPoint y="-3" as="offset" />
          </mxGeometry>
        </mxCell>
        <mxCell id="L87-WMjq7oRlefQ_rRnq-2" value="" style="sketch=0;outlineConnect=0;fontColor=#232F3E;gradientColor=none;fillColor=#232F3D;strokeColor=none;dashed=0;verticalLabelPosition=bottom;verticalAlign=top;align=center;html=1;fontSize=12;fontStyle=0;aspect=fixed;pointerEvents=1;shape=mxgraph.aws4.user;" vertex="1" parent="1">
          <mxGeometry x="140" y="280" width="78" height="78" as="geometry" />
        </mxCell>
        <mxCell id="L87-WMjq7oRlefQ_rRnq-3" value="IP based&lt;div&gt;allow listing&lt;/div&gt;&lt;div&gt;function&lt;/div&gt;" style="sketch=0;outlineConnect=0;fontColor=#232F3E;gradientColor=none;fillColor=#8C4FFF;strokeColor=none;dashed=0;verticalLabelPosition=bottom;verticalAlign=top;align=center;html=1;fontSize=12;fontStyle=0;aspect=fixed;pointerEvents=1;shape=mxgraph.aws4.cloudfront_functions;" vertex="1" parent="1">
          <mxGeometry x="350" y="280" width="78" height="78" as="geometry" />
        </mxCell>
        <mxCell id="L87-WMjq7oRlefQ_rRnq-6" style="edgeStyle=orthogonalEdgeStyle;rounded=0;orthogonalLoop=1;jettySize=auto;html=1;entryX=0;entryY=0.5;entryDx=0;entryDy=0;entryPerimeter=0;" edge="1" parent="1" source="L87-WMjq7oRlefQ_rRnq-3" target="L87-WMjq7oRlefQ_rRnq-1">
          <mxGeometry relative="1" as="geometry" />
        </mxCell>
        <mxCell id="L87-WMjq7oRlefQ_rRnq-7" value="" style="sketch=0;points=[[0,0,0],[0.25,0,0],[0.5,0,0],[0.75,0,0],[1,0,0],[0,1,0],[0.25,1,0],[0.5,1,0],[0.75,1,0],[1,1,0],[0,0.25,0],[0,0.5,0],[0,0.75,0],[1,0.25,0],[1,0.5,0],[1,0.75,0]];outlineConnect=0;fontColor=#232F3E;fillColor=#7AA116;strokeColor=#ffffff;dashed=0;verticalLabelPosition=bottom;verticalAlign=top;align=center;html=1;fontSize=12;fontStyle=0;aspect=fixed;shape=mxgraph.aws4.resourceIcon;resIcon=mxgraph.aws4.s3;" vertex="1" parent="1">
          <mxGeometry x="650" y="280" width="78" height="78" as="geometry" />
        </mxCell>
        <mxCell id="L87-WMjq7oRlefQ_rRnq-8" style="edgeStyle=orthogonalEdgeStyle;rounded=0;orthogonalLoop=1;jettySize=auto;html=1;entryX=0;entryY=0.5;entryDx=0;entryDy=0;entryPerimeter=0;" edge="1" parent="1" source="L87-WMjq7oRlefQ_rRnq-1" target="L87-WMjq7oRlefQ_rRnq-7">
          <mxGeometry relative="1" as="geometry" />
        </mxCell>
        <mxCell id="L87-WMjq7oRlefQ_rRnq-9" value="OAC" style="edgeLabel;html=1;align=center;verticalAlign=middle;resizable=0;points=[];" vertex="1" connectable="0" parent="L87-WMjq7oRlefQ_rRnq-8">
          <mxGeometry x="-0.0218" relative="1" as="geometry">
            <mxPoint as="offset" />
          </mxGeometry>
        </mxCell>
      </root>
    </mxGraphModel>
  </diagram>
</mxfile>
